<svg fill="none" height="50" viewBox="0 0 50 50" width="50" xmlns="http://www.w3.org/2000/svg"><path d="m43.1055 13.6914v33.0859c0 1.7774-1.4453 3.2227-3.2227 3.2227h-29.7656c-1.77736 0-3.22267-1.4453-3.22267-3.2227v-43.55464c0-1.77735 1.44531-3.22266 3.22267-3.22266h19.2969z" fill="#518ff5"/><g fill="#fff"><path d="m15.7422 25.1074h18.5156v2.0606h-18.5156z"/><path d="m15.7422 29.6973h18.5156v2.0605h-18.5156z"/><path d="m15.7422 34.2969h18.5156v2.0605h-18.5156z"/><path d="m15.7422 38.8867h13.1738v2.0606h-13.1738z"/></g><path d="m31.2793 13.1738 11.8262 9.5801v-9.0039l-6.6993-3.88672z" fill="#000" opacity=".19"/><path d="m43.1055 13.6914h-10.4688c-1.7773 0-3.2226-1.4453-3.2226-3.2227v-10.4687z" fill="#a6c5fa"/></svg>