<svg width="100" height="100" viewBox="0 0 100 100" fill="none" xmlns="http://www.w3.org/2000/svg">
<path d="M86.2109 27.3828V93.5547C86.2109 97.1094 83.3203 100 79.7656 100H20.2344C16.6797 100 13.7891 97.1094 13.7891 93.5547V6.44531C13.7891 2.89062 16.6797 0 20.2344 0H58.8281L86.2109 27.3828Z" fill="#518FF5"/>
<path d="M31.4844 50.2148H68.5156V54.3359H31.4844V50.2148Z" fill="white"/>
<path d="M31.4844 59.3945H68.5156V63.5156H31.4844V59.3945Z" fill="white"/>
<path d="M31.4844 68.5938H68.5156V72.7148H31.4844V68.5938Z" fill="white"/>
<path d="M31.4844 77.7734H57.832V81.8945H31.4844V77.7734Z" fill="white"/>
<path opacity="0.19" d="M62.5586 26.3477L86.2109 45.5078V27.5L72.8125 19.7266L62.5586 26.3477Z" fill="black"/>
<path d="M86.2109 27.3828H65.2734C61.7187 27.3828 58.8281 24.4922 58.8281 20.9375V0L86.2109 27.3828Z" fill="#A6C5FA"/>
</svg>
