<svg width="100" height="100" viewBox="0 0 100 100" fill="none" xmlns="http://www.w3.org/2000/svg">
<path d="M79 31.9062V84.8438C79 87.6875 76.685 90 73.8382 90H26.1618C23.315 90 21 87.6875 21 84.8438V15.1562C21 12.3125 23.315 10 26.1618 10H57.0701L79 31.9062Z" fill="#518FF5"/>
<path d="M34.9453 50.1719H64.5703V53.4688H34.9453V50.1719Z" fill="white"/>
<path d="M34.9453 57.5156H64.5703V60.8125H34.9453V57.5156Z" fill="white"/>
<path d="M34.9453 64.875H64.5703V68.1719H34.9453V64.875Z" fill="white"/>
<path d="M34.9453 72.2188H56.0234V75.5156H34.9453V72.2188Z" fill="white"/>
<path opacity="0.19" d="M60 31.1364L79 46V32.0303L68.237 26L60 31.1364Z" fill="black"/>
<path d="M79 32H62.1783C59.3224 32 57 29.6776 57 26.8217V10L79 32Z" fill="#A6C5FA"/>
</svg>
