<svg fill="none" height="50" viewBox="0 0 50 50" width="50" xmlns="http://www.w3.org/2000/svg"><g fill="#151515"><path d="m40.6863 14.9413h-18.0392l-3.5883-4.2647c-.1207-.1451-.3016-.2265-.4902-.2206h-14.55389c-2.22206.0162-4.01471 1.822-4.01471 4.0441v26.2304c.00269608 2.2297 1.80956 4.0365 4.03922 4.0392h36.64708c2.2296-.0027 4.0365-1.8095 4.0392-4.0392v-21.75c-.0027-2.2297-1.8096-4.0365-4.0392-4.0392z"/><path d="m45.9852 9.71582h-18.0441l-3.5882-4.26471c-.1208-.1451-.3016-.22647-.4902-.22059h-14.54906c-2.01618.00331-3.72108 1.49277-3.9951 3.4902h13.26966c.6958-.00172 1.3564.30539 1.8039.83823l3.0637 3.64215h17.2304c3.1869.0054 5.7691 2.5876 5.7745 5.7745v20.5294c2.0206-.252 3.5376-1.9686 3.5392-4.0049v-21.75c-.0053-2.2182-1.7965-4.01811-4.0147-4.03428z"/><path d="m25 18.025c-.1333 0-.2623.025-.387.075-.1253.05-.2297.1166-.313.2l-4.6 4.6c-.1833.1833-.275.4166-.275.7 0 .2833.0917.5166.275.7.1833.1833.4167.275.7.275s.5167-.0917.7-.275l3.9-3.9 3.9 3.9c.1833.1833.4167.275.7.275s.5167-.0917.7-.275c.1833-.1834.275-.4167.275-.7 0-.2834-.0917-.5167-.275-.7l-4.6-4.6c-.1-.1-.2083-.1707-.325-.212-.1167-.042-.2417-.063-.375-.063z"/></g></svg>