<svg width="100" height="100" viewBox="0 0 100 100" fill="none" xmlns="http://www.w3.org/2000/svg">
<path d="M81.3726 29.8827H45.2941L38.1177 21.3532C37.8762 21.063 37.5145 20.9003 37.1373 20.9121H8.02941C3.58529 20.9444 0 24.5562 0 29.0003V81.4611C0.00539216 85.9204 3.61912 89.5341 8.07843 89.5395H81.3726C85.8319 89.5341 89.4456 85.9204 89.451 81.4611V37.9611C89.4456 33.5018 85.8319 29.888 81.3726 29.8827Z" fill="#151515"/>
<path d="M91.9705 19.4317H55.8822L48.7058 10.9023C48.4644 10.6121 48.1026 10.4493 47.7254 10.4611H18.6273C14.595 10.4677 11.1852 13.4466 10.6371 17.4415H37.1764C38.568 17.4381 39.8894 18.0523 40.7842 19.118L46.9117 26.4023H81.3724C87.7462 26.4131 92.9107 31.5775 92.9215 37.9513V79.0101C96.9626 78.5059 99.9967 75.0729 99.9999 71.0003V27.5003C99.9894 23.0638 96.4068 19.464 91.9705 19.4317Z" fill="#151515"/>
<path d="M50 36.05C49.7333 36.05 49.4753 36.1 49.226 36.2C48.9753 36.3 48.7667 36.4333 48.6 36.6L39.4 45.8C39.0333 46.1667 38.85 46.6333 38.85 47.2C38.85 47.7667 39.0333 48.2333 39.4 48.6C39.7667 48.9667 40.2333 49.15 40.8 49.15C41.3667 49.15 41.8333 48.9667 42.2 48.6L50 40.8L57.8 48.6C58.1667 48.9667 58.6333 49.15 59.2 49.15C59.7667 49.15 60.2333 48.9667 60.6 48.6C60.9667 48.2333 61.15 47.7667 61.15 47.2C61.15 46.6333 60.9667 46.1667 60.6 45.8L51.4 36.6C51.2 36.4 50.9833 36.2587 50.75 36.176C50.5167 36.092 50.2667 36.05 50 36.05Z" fill="#151515"/>
</svg>
