<svg fill="none" height="100" viewBox="0 0 100 100" width="100" xmlns="http://www.w3.org/2000/svg"><path d="m70.7941 32.8973h-31.3882l-6.2436-7.4206c-.21-.2525-.5247-.3941-.8529-.3838h-25.32381c-3.86638.0281-6.98559 3.1703-6.98559 7.0367v45.6409c.00469118 3.8796 3.14863 7.0235 7.02823 7.0282h63.76587c3.8796-.0047 7.0235-3.1486 7.0282-7.0282v-37.845c-.0047-3.8796-3.1486-7.0235-7.0282-7.0282z" fill="#4590e8"/><path d="m80.0143 23.8049h-31.3967l-6.2436-7.4206c-.21-.2524-.5247-.394-.8529-.3838h-25.3153c-3.5081.0058-6.47467 2.5974-6.95147 6.073h23.08907c1.2108-.003 2.3603.5313 3.1389 1.4585l5.3309 6.3373h29.9808c5.5452.0094 10.0383 4.5025 10.0477 10.0477v35.7212c3.5158-.4387 6.1554-3.4255 6.1582-6.9686v-37.845c-.0092-3.8597-3.126-6.9915-6.9856-7.0197z" fill="#73b3ff"/></svg>