<svg width="100" height="100" viewBox="0 0 100 100" fill="none" xmlns="http://www.w3.org/2000/svg">
<path d="M79 31.9063V84.8438C79 87.6875 76.685 90 73.8382 90H26.1618C23.315 90 21 87.6875 21 84.8438V15.1563C21 12.3125 23.315 10 26.1618 10H57.0701L79 31.9063Z" fill="#744ABD"/>
<path d="M39.0624 50.4557H64.7769V53.7681H39.0624V50.4557Z" fill="white"/>
<path d="M33 54C34.1046 54 35 53.1046 35 52C35 50.8954 34.1046 50 33 50C31.8954 50 31 50.8954 31 52C31 53.1046 31.8954 54 33 54Z" fill="white"/>
<path d="M39.0624 59.8749H64.7769V63.1873H39.0624V59.8749Z" fill="white"/>
<path d="M33 63C34.1046 63 35 62.3284 35 61.5C35 60.6716 34.1046 60 33 60C31.8954 60 31 60.6716 31 61.5C31 62.3284 31.8954 63 33 63Z" fill="white"/>
<path d="M39.0624 69.2942H64.7769V72.6066H39.0624V69.2942Z" fill="white"/>
<path d="M33 73C34.1046 73 35 72.1046 35 71C35 69.8954 34.1046 69 33 69C31.8954 69 31 69.8954 31 71C31 72.1046 31.8954 73 33 73Z" fill="white"/>
<path opacity="0.19" d="M60 31.3932L79 47V32.3477L68.2213 26L60 31.3932Z" fill="black"/>
<path d="M79 32H62.1783C59.3224 32 57 29.6776 57 26.8217V10L79 32Z" fill="#B7A2DD"/>
</svg>
