<svg width="100" height="100" viewBox="0 0 100 100" fill="none" xmlns="http://www.w3.org/2000/svg">
<path d="M86.2109 27.3828V93.5547C86.2109 97.1094 83.3203 100 79.7656 100H20.2344C16.6797 100 13.7891 97.1094 13.7891 93.5547V6.44531C13.7891 2.89062 16.6797 0 20.2344 0H58.8281L86.2109 27.3828Z" fill="#744ABD"/>
<path d="M36.5234 50.332H68.5156V54.4531H36.5234V50.332Z" fill="white"/>
<path d="M29.2578 54.6875C30.5307 54.6875 31.5625 53.6557 31.5625 52.3828C31.5625 51.11 30.5307 50.0781 29.2578 50.0781C27.985 50.0781 26.9531 51.11 26.9531 52.3828C26.9531 53.6557 27.985 54.6875 29.2578 54.6875Z" fill="white"/>
<path d="M36.5234 62.0508H68.5156V66.1719H36.5234V62.0508Z" fill="white"/>
<path d="M29.2578 66.4063C30.5307 66.4063 31.5625 65.3744 31.5625 64.1016C31.5625 62.8287 30.5307 61.7969 29.2578 61.7969C27.985 61.7969 26.9531 62.8287 26.9531 64.1016C26.9531 65.3744 27.985 66.4063 29.2578 66.4063Z" fill="white"/>
<path d="M36.5234 73.7695H68.5156V77.8906H36.5234V73.7695Z" fill="white"/>
<path d="M29.2578 78.125C30.5307 78.125 31.5625 77.0932 31.5625 75.8203C31.5625 74.5475 30.5307 73.5156 29.2578 73.5156C27.985 73.5156 26.9531 74.5475 26.9531 75.8203C26.9531 77.0932 27.985 78.125 29.2578 78.125Z" fill="white"/>
<path opacity="0.19" d="M62.5586 26.4453L86.2109 45.6055V27.6172L72.793 19.8242L62.5586 26.4453Z" fill="black"/>
<path d="M86.2109 27.3828H65.2734C61.7187 27.3828 58.8281 24.4922 58.8281 20.9375V0L86.2109 27.3828Z" fill="#B7A2DD"/>
</svg>
