<svg fill="none" height="50" viewBox="0 0 50 50" width="50" xmlns="http://www.w3.org/2000/svg"><path d="m43.1055 13.6914v33.0859c0 1.7774-1.4453 3.2227-3.2227 3.2227h-29.7656c-1.77736 0-3.22267-1.4453-3.22267-3.2227v-43.55464c0-1.77735 1.44531-3.22266 3.22267-3.22266h19.2969z" fill="#744abd"/><g fill="#fff"><path d="m18.2617 25.166h15.9961v2.0606h-15.9961z"/><path d="m14.6289 27.3438c.6364 0 1.1524-.516 1.1524-1.1524s-.516-1.1523-1.1524-1.1523-1.1523.5159-1.1523 1.1523.5159 1.1524 1.1523 1.1524z"/><path d="m18.2617 31.0254h15.9961v2.0605h-15.9961z"/><path d="m14.6289 33.2031c.6364 0 1.1524-.5159 1.1524-1.1523s-.516-1.1524-1.1524-1.1524-1.1523.516-1.1523 1.1524.5159 1.1523 1.1523 1.1523z"/><path d="m18.2617 36.8848h15.9961v2.0605h-15.9961z"/><path d="m14.6289 39.0625c.6364 0 1.1524-.5159 1.1524-1.1523 0-.6365-.516-1.1524-1.1524-1.1524s-1.1523.5159-1.1523 1.1524c0 .6364.5159 1.1523 1.1523 1.1523z"/></g><path d="m31.2793 13.2227 11.8262 9.58v-8.9941l-6.709-3.89649z" fill="#000" opacity=".19"/><path d="m43.1055 13.6914h-10.4688c-1.7773 0-3.2226-1.4453-3.2226-3.2227v-10.4687z" fill="#b7a2dd"/></svg>