<svg width="100" height="100" viewBox="0 0 100 100" fill="none" xmlns="http://www.w3.org/2000/svg">
<path d="M86.2109 27.3828V93.5547C86.2109 97.1094 83.3203 100 79.7656 100H20.2344C16.6797 100 13.7891 97.1094 13.7891 93.5547V6.44531C13.7891 2.89062 16.6797 0 20.2344 0H58.8281L86.2109 27.3828Z" fill="#BD4A51"/>
<path opacity="0.19" d="M62.5586 26.4453L86.2109 45.6055V27.6172L72.793 19.8242L62.5586 26.4453Z" fill="black"/>
<path d="M86.2109 27.3828H65.2734C61.7187 27.3828 58.8281 24.4922 58.8281 20.9375V0L86.2109 27.3828Z" fill="#DDA2A2"/>
<path d="M29 60V43H35.0967C36.3457 43 37.3936 43.2435 38.2403 43.7305C39.0924 44.2174 39.7354 44.887 40.1694 45.7393C40.6086 46.5859 40.8283 47.5488 40.8283 48.6279C40.8283 49.7181 40.6086 50.6865 40.1694 51.5332C39.7301 52.3799 39.0818 53.0467 38.2245 53.5337C37.3671 54.0151 36.3113 54.2559 35.057 54.2559H31.0164V51.7241H34.6601C35.3904 51.7241 35.9885 51.5913 36.4542 51.3257C36.9199 51.0601 37.2639 50.6948 37.4862 50.23C37.7137 49.7651 37.8275 49.2311 37.8275 48.6279C37.8275 48.0247 37.7137 47.4935 37.4862 47.0342C37.2639 46.5749 36.9173 46.2179 36.4462 45.9634C35.9805 45.7033 35.3799 45.5732 34.6442 45.5732H31.9452V60H29Z" fill="white"/>
<path d="M48.8957 60H43.3864V43H49.0068C50.621 43 52.0076 43.3403 53.1666 44.021C54.3309 44.6961 55.2253 45.6673 55.8498 46.9346C56.4742 48.2018 56.7865 49.7181 56.7865 51.4834C56.7865 53.2542 56.4716 54.776 55.8418 56.0488C55.2173 57.3216 54.315 58.2983 53.1348 58.979C51.9599 59.6597 50.5469 60 48.8957 60ZM46.3316 57.3354H48.7528C49.8853 57.3354 50.83 57.1196 51.5868 56.688C52.3436 56.2508 52.9125 55.6006 53.2936 54.7373C53.6746 53.8685 53.8651 52.7839 53.8651 51.4834C53.8651 50.1829 53.6746 49.1038 53.2936 48.2461C52.9125 47.3828 52.3489 46.7381 51.6027 46.312C50.8618 45.8804 49.9409 45.6646 48.8401 45.6646H46.3316V57.3354Z" fill="white"/>
<path d="M59.5848 60V43H70V45.5815H62.5299V50.1968H69.2855V52.7783H62.5299V60H59.5848Z" fill="white"/>
</svg>
