<svg width="100" height="100" viewBox="0 0 100 100" fill="none" xmlns="http://www.w3.org/2000/svg">
<path d="M79 31.9063V84.8438C79 87.6875 76.685 90 73.8382 90H26.1618C23.315 90 21 87.6875 21 84.8438V15.1563C21 12.3125 23.315 10 26.1618 10H57.0701L79 31.9063Z" fill="#BD4A51"/>
<path opacity="0.19" d="M60 31.1364L79 46V32.0455L68.2213 26L60 31.1364Z" fill="black"/>
<path d="M79 32H62.1783C59.3224 32 57 29.6776 57 26.8217V10L79 32Z" fill="#DDA2A2"/>
<path d="M33 58V44H37.9071C38.9124 44 39.7558 44.2005 40.4373 44.6016C41.1231 45.0026 41.6407 45.554 41.99 46.2559C42.3435 46.9531 42.5203 47.7461 42.5203 48.6348C42.5203 49.5326 42.3435 50.3301 41.99 51.0273C41.6364 51.7246 41.1146 52.2738 40.4246 52.6748C39.7345 53.0713 38.8847 53.2695 37.8752 53.2695H34.6229V51.1846H37.5557C38.1435 51.1846 38.6249 51.0752 38.9997 50.8564C39.3746 50.6377 39.6514 50.3369 39.8303 49.9541C40.0135 49.5713 40.1051 49.1315 40.1051 48.6348C40.1051 48.138 40.0135 47.7005 39.8303 47.3223C39.6514 46.944 39.3724 46.6501 38.9933 46.4404C38.6185 46.2262 38.135 46.1191 37.5429 46.1191H35.3705V58H33Z" fill="white"/>
<path d="M49.0136 58H44.5793V44H49.1031C50.4022 44 51.5183 44.2803 52.4511 44.8408C53.3883 45.3968 54.1081 46.1966 54.6108 47.2402C55.1134 48.2839 55.3647 49.5326 55.3647 50.9863C55.3647 52.4447 55.1113 53.6979 54.6044 54.7461C54.1017 55.7943 53.3755 56.5986 52.4256 57.1592C51.4799 57.7197 50.3426 58 49.0136 58ZM46.9498 55.8057H48.8986C49.8102 55.8057 50.5705 55.6279 51.1796 55.2725C51.7888 54.9124 52.2467 54.377 52.5534 53.666C52.8601 52.9505 53.0134 52.0573 53.0134 50.9863C53.0134 49.9154 52.8601 49.0267 52.5534 48.3203C52.2467 47.6094 51.793 47.0785 51.1924 46.7275C50.5961 46.3721 49.8549 46.1943 48.9689 46.1943H46.9498V55.8057Z" fill="white"/>
<path d="M57.617 58V44H66V46.126H59.9875V49.9268H65.4249V52.0527H59.9875V58H57.617Z" fill="white"/>
</svg>
