<svg fill="none" height="50" viewBox="0 0 50 50" width="50" xmlns="http://www.w3.org/2000/svg"><path d="m43.1055 13.6914v33.0859c0 1.7774-1.4453 3.2227-3.2227 3.2227h-29.7656c-1.77736 0-3.22267-1.4453-3.22267-3.2227v-43.55464c0-1.77735 1.44531-3.22266 3.22267-3.22266h19.2969z" fill="#bd4a51"/><path d="m31.2793 13.2227 11.8262 9.58v-8.9941l-6.709-3.89649z" fill="#000" opacity=".19"/><path d="m43.1055 13.6914h-10.4688c-1.7773 0-3.2226-1.4453-3.2226-3.2227v-10.4687z" fill="#dda2a2"/><g fill="#fff"><path d="m15.6456 30v-6.5455h2.4545c.5029 0 .9248.0938 1.2657.2813.343.1875.6019.4453.7766.7734.1769.326.2653.6968.2653 1.1122 0 .4198-.0884.7927-.2653 1.1187-.1768.326-.4379.5827-.783.7702-.3452.1854-.7703.2781-1.2752.2781h-1.6268v-.9748h1.467c.294 0 .5348-.0512.7223-.1534.1875-.1023.326-.2429.4154-.4219.0917-.179.1375-.3846.1375-.6169 0-.2322-.0458-.4367-.1375-.6136-.0894-.1768-.229-.3143-.4186-.4123-.1875-.1001-.4294-.1502-.7255-.1502h-1.0867v5.5547z"/><path d="m23.6556 30h-2.218v-6.5455h2.2628c.6498 0 1.2081.1311 1.6747.3932.4687.2599.8288.6338 1.0802 1.1218.2515.4879.3772 1.0717.3772 1.7514 0 .6818-.1268 1.2677-.3803 1.7578-.2515.4901-.6148.8661-1.0899 1.1282-.473.2621-1.0419.3931-1.7067.3931zm-1.0323-1.0259h.9748c.456 0 .8363-.0831 1.141-.2493.3047-.1683.5337-.4187.6871-.7511.1534-.3345.2301-.7521.2301-1.2528s-.0767-.9162-.2301-1.2465c-.1534-.3324-.3803-.5806-.6807-.7446-.2983-.1662-.6691-.2493-1.1122-.2493h-1.01z"/><path d="m27.9591 30v-6.5455h4.1932v.994h-3.0075v1.777h2.7198v.994h-2.7198v2.7805z"/></g></svg>