<svg fill="none" height="50" viewBox="0 0 50 50" width="50" xmlns="http://www.w3.org/2000/svg"><path d="m43.0664 13.7207v33.0078c0 1.7774-1.4355 3.2129-3.2129 3.2129h-29.707c-1.77736 0-3.21291-1.4355-3.21291-3.2129v-43.45702c0-1.77734 1.43555-3.2128862 3.21291-3.2128862h19.2578z" fill="#23a566"/><path d="m32.9004 24.8926h-15.8008c-.5664 0-1.0254.459-1.0254 1.0254v13.7597c0 .5664.459 1.0254 1.0254 1.0254h15.8106c.5664 0 1.0253-.459 1.0253-1.0254v-13.75c-.0097-.5664-.4687-1.0351-1.0351-1.0351zm-14.7754 6.6015h5.8496v2.6075h-5.8496zm7.9004 0h5.8496v2.6075h-5.8496zm5.8496-2.0507h-5.8496v-2.4903h5.8496zm-7.9004-2.4903v2.4903h-5.8496v-2.4903zm-5.8496 9.209h5.8496v2.4902h-5.8496zm7.9004 2.4902v-2.4902h5.8496v2.4902z" fill="#fff"/><path d="m31.2402 13.2227 11.8262 9.58v-8.9941l-6.709-3.89649z" fill="#000" opacity=".19"/><path d="m43.0664 13.7207h-10.4492c-1.7774 0-3.2129-1.4355-3.2129-3.2129v-10.4492062z" fill="#8ed1b1"/></svg>