<svg width="100" height="100" viewBox="0 0 100 100" fill="none" xmlns="http://www.w3.org/2000/svg">
<path d="M79 31.9107V84.8473C79 87.6977 76.6957 90 73.8427 90H26.1573C23.3043 90 21 87.6977 21 84.8473V15.1527C21 12.3023 23.3043 10 26.1573 10H57.0697L79 31.9107Z" fill="#23A566"/>
<path d="M62.3773 50H37.6074C36.7195 50 36 50.7258 36 51.6214V73.3786C36 74.2742 36.7195 75 37.6074 75H62.3926C63.2805 75 64 74.2742 64 73.3786V51.6368C63.9847 50.7412 63.2652 50 62.3773 50ZM39.2149 60.4385H48.3849V64.5615H39.2149V60.4385ZM51.5998 60.4385H60.7698V64.5615H51.5998V60.4385ZM60.7698 57.1958H51.5998V53.2582H60.7698V57.1958ZM48.3849 53.2582V57.1958H39.2149V53.2582H48.3849ZM39.2149 67.8196H48.3849V71.7573H39.2149V67.8196ZM51.5998 71.7573V67.8196H60.7698V71.7573H51.5998Z" fill="white"/>
<path opacity="0.19" d="M60 31.3932L79 47V32.3477L68.2213 26L60 31.3932Z" fill="black"/>
<path d="M79 32H62.1737C59.3117 32 57 29.6883 57 26.8263V10L79 32Z" fill="#8ED1B1"/>
</svg>
