<svg width="100" height="100" viewBox="0 0 100 100" fill="none" xmlns="http://www.w3.org/2000/svg">
<path d="M86.1328 27.4414V93.457C86.1328 97.0117 83.2617 99.8828 79.707 99.8828H20.293C16.7383 99.8828 13.8672 97.0117 13.8672 93.457V6.54297C13.8672 2.98828 16.7383 0.117188 20.293 0.117188H58.8086L86.1328 27.4414Z" fill="#23A566"/>
<path d="M65.8008 49.7852H34.1992C33.0664 49.7852 32.1484 50.7031 32.1484 51.8359V79.3555C32.1484 80.4883 33.0664 81.4062 34.1992 81.4062H65.8203C66.9531 81.4062 67.8711 80.4883 67.8711 79.3555V51.8555C67.8516 50.7227 66.9336 49.7852 65.8008 49.7852ZM36.25 62.9883H47.9492V68.2031H36.25V62.9883ZM52.0508 62.9883H63.75V68.2031H52.0508V62.9883ZM63.75 58.8867H52.0508V53.9063H63.75V58.8867ZM47.9492 53.9063V58.8867H36.25V53.9063H47.9492ZM36.25 72.3242H47.9492V77.3047H36.25V72.3242ZM52.0508 77.3047V72.3242H63.75V77.3047H52.0508Z" fill="white"/>
<path opacity="0.19" d="M62.4805 26.4453L86.1328 45.6055V27.6172L72.7148 19.8242L62.4805 26.4453Z" fill="black"/>
<path d="M86.1328 27.4414H65.2344C61.6797 27.4414 58.8086 24.5703 58.8086 21.0156V0.117188L86.1328 27.4414Z" fill="#8ED1B1"/>
</svg>
