<svg width="100" height="100" viewBox="0 0 100 100" fill="none" xmlns="http://www.w3.org/2000/svg">
<path d="M79 31.9063V84.8438C79 87.6875 76.6856 90 73.8396 90H26.1604C23.3144 90 21 87.6875 21 84.8438V15.1563C21 12.3125 23.3144 10 26.1604 10H57.0604L79 31.9063Z" fill="#F5B912"/>
<path d="M60.4786 46H39.5214C37.5737 46 36 47.6299 36 49.6472V71.3528C36 73.3701 37.5737 75 39.5214 75H60.4786C62.4263 75 64 73.3701 64 71.3528V49.6311C64 47.6299 62.4263 46 60.4786 46ZM60.3695 68.5125H39.6461V53.9076H60.3695V68.5125Z" fill="white"/>
<path opacity="0.19" d="M60 31.1364L79 46V32.0303L68.2213 26L60 31.1364Z" fill="black"/>
<path d="M79 32H62.1783C59.3224 32 57 29.6776 57 26.8217V10L79 32Z" fill="#FADC87"/>
</svg>
