<svg fill="none" height="50" viewBox="0 0 50 50" width="50" xmlns="http://www.w3.org/2000/svg"><path d="m43.0469 13.6914v33.0859c0 1.7774-1.4453 3.2227-3.2227 3.2227h-29.7754c-1.77732 0-3.22263-1.4453-3.22263-3.2227v-43.55464c0-1.77735 1.44531-3.22266 3.22263-3.22266h19.2969z" fill="#f5b912"/><path d="m31.6016 22.8027h-13.1348c-1.2207 0-2.207.9864-2.207 2.2071v13.1347c0 1.2207.9863 2.2071 2.207 2.2071h13.1348c1.2207 0 2.207-.9864 2.207-2.2071v-13.1445c0-1.2109-.9863-2.1973-2.207-2.1973zm-.0684 13.6231h-12.9883v-8.8379h12.9883z" fill="#fff"/><path d="m31.2109 13.125 11.8262 9.5801v-9.0039l-6.709-3.88675z" fill="#000" opacity=".19"/><path d="m43.1055 13.6914h-10.4688c-1.7773 0-3.2226-1.4453-3.2226-3.2227v-10.4687z" fill="#fadc87"/></svg>