<svg width="100" height="100" viewBox="0 0 100 100" fill="none" xmlns="http://www.w3.org/2000/svg">
<path d="M86.0937 27.3828V93.5547C86.0937 97.1094 83.2031 100 79.6484 100H20.0977C16.543 100 13.6523 97.1094 13.6523 93.5547V6.44531C13.6523 2.89062 16.543 0 20.0977 0H58.6914L86.0937 27.3828Z" fill="#F5B912"/>
<path d="M63.2031 45.6055H36.9336C34.4922 45.6055 32.5195 47.5781 32.5195 50.0195V76.2891C32.5195 78.7305 34.4922 80.7031 36.9336 80.7031H63.2031C65.6445 80.7031 67.6172 78.7305 67.6172 76.2891V50C67.6172 47.5781 65.6445 45.6055 63.2031 45.6055ZM63.0664 72.8516H37.0898V55.1758H63.0664V72.8516Z" fill="white"/>
<path opacity="0.19" d="M62.4219 26.25L86.0742 45.4102V27.4023L72.6562 19.6289L62.4219 26.25Z" fill="black"/>
<path d="M86.2109 27.3828H65.2734C61.7187 27.3828 58.8281 24.4922 58.8281 20.9375V0L86.2109 27.3828Z" fill="#FADC87"/>
</svg>
