<svg width="100" height="100" viewBox="0 0 100 100" fill="none" xmlns="http://www.w3.org/2000/svg">
<path d="M79 31.9063V84.8438C79 87.6875 76.6856 90 73.8396 90H26.1604C23.3144 90 21 87.6875 21 84.8438V15.1563C21 12.3125 23.3144 10 26.1604 10H57.0604L79 31.9063Z" fill="#BA12F5"/>
<path d="M69.1307 49.1089L67.6607 50.5789C64.4757 47.8027 60.3919 46.25 56.1457 46.25C53.2869 46.25 50.4296 46.985 47.9796 48.2912L54.1857 42.085C54.6757 42.4112 55.2469 42.575 55.8196 42.575C56.6357 42.575 57.4534 42.2489 58.1057 41.595C59.4119 40.2889 59.4119 38.2462 58.1057 36.94C57.4519 36.2862 56.6357 35.96 55.8196 35.96C55.0034 35.96 54.1857 36.2862 53.5334 36.94C52.4722 38.0839 52.3084 39.7162 53.0434 40.9412L45.2034 48.7812L43.7334 47.3112L39.7322 51.3123L41.2022 52.7823L33.1984 60.7862C32.7084 60.46 32.1372 60.2962 31.5646 60.2962C30.7484 60.2962 29.9307 60.6223 29.2784 61.2762C27.9722 62.5823 27.9722 64.625 29.2784 65.9312C29.9322 66.5023 30.7484 66.83 31.5646 66.83C32.3807 66.83 33.1984 66.5039 33.8507 65.85C34.9119 64.7889 35.0757 63.155 34.3407 61.8489L40.5469 55.6427C37.2807 61.9315 38.0157 69.7715 42.833 75.3239L41.363 76.875L45.4469 80.8762L49.448 76.875L45.4469 72.8739L44.058 74.2627C39.3219 68.7089 39.0769 60.7065 43.078 54.8265L43.7319 55.4804L47.8157 51.4792L47.0807 50.8254C49.6946 48.9465 52.8796 47.9665 56.1457 47.9665C59.9846 47.9665 63.5769 49.3554 66.5169 51.8054L65.0469 53.1942L69.1307 57.1954L73.1319 53.1942L69.1307 49.1104V49.1089ZM47.1619 76.875L45.4469 78.59L43.7319 76.875L45.4469 75.16L47.1619 76.875ZM54.6757 38.165C55.0019 37.8389 55.4107 37.675 55.8196 37.675C56.2284 37.675 56.6357 37.8389 56.9634 38.165C57.6172 38.8189 57.6172 39.7989 56.9634 40.4512C56.6372 40.7773 56.2284 40.9412 55.8196 40.9412C55.4107 40.9412 55.0034 40.7773 54.6757 40.4512C54.0219 39.88 54.0219 38.8173 54.6757 38.165ZM32.7069 64.7062C32.3807 65.0323 31.9719 65.1962 31.563 65.1962C31.1542 65.1962 30.7469 65.0323 30.4192 64.7062C30.093 64.4612 29.9292 64.0523 29.9292 63.5623C29.9292 63.1535 30.093 62.7462 30.4192 62.4185C30.7453 62.0908 31.1542 61.9285 31.563 61.9285C31.9719 61.9285 32.3792 62.0923 32.7069 62.4185C33.3607 63.0723 33.3607 64.135 32.7069 64.7062ZM43.6507 53.1912L41.9357 51.4762L43.6507 49.7612L45.3657 51.4762L43.6507 53.1912ZM69.1307 54.9062L67.4157 53.1912L69.1307 51.4762L70.8457 53.1912L69.1307 54.9062Z" fill="white"/>
<path opacity="0.19" d="M60 31.1364L79 46V32.0303L68.2213 26L60 31.1364Z" fill="black"/>
<path d="M79 32H62.1783C59.3224 32 57 29.6776 57 26.8217V10L79 32Z" fill="#DC87FA"/>
</svg>
