<svg width="100" height="100" viewBox="0 0 100 100" fill="none" xmlns="http://www.w3.org/2000/svg">
<path d="M79 31.9062V84.8438C79 87.6875 76.685 90 73.8382 90H26.1618C23.315 90 21 87.6875 21 84.8438V15.1562C21 12.3125 23.315 10 26.1618 10H57.0701L79 31.9062Z" fill="#4AB6BD"/>
<path opacity="0.19" d="M60 31.1364L79 46V32.0455L68.2213 26L60 31.1364Z" fill="black"/>
<path d="M79 32H62.1783C59.3224 32 57 29.6776 57 26.8217V10L79 32Z" fill="#A2DDD9"/>
<g clip-path="url(#clip0_106_10)">
<path d="M56.375 48.65L63.5429 43.6313C63.6459 43.559 63.7669 43.5164 63.8925 43.5082C64.0181 43.4999 64.1435 43.5263 64.2551 43.5845C64.3668 43.6426 64.4603 43.7303 64.5255 43.838C64.5907 43.9456 64.6251 44.0691 64.625 44.195V60.805C64.6251 60.9309 64.5907 61.0544 64.5255 61.162C64.4603 61.2697 64.3668 61.3574 64.2551 61.4155C64.1435 61.4737 64.0181 61.5001 63.8925 61.4918C63.7669 61.4836 63.6459 61.441 63.5429 61.3688L56.375 56.35V62.125C56.375 62.4897 56.2301 62.8394 55.9723 63.0973C55.7144 63.3551 55.3647 63.5 55 63.5H35.75C35.3853 63.5 35.0356 63.3551 34.7777 63.0973C34.5199 62.8394 34.375 62.4897 34.375 62.125V42.875C34.375 42.5103 34.5199 42.1606 34.7777 41.9027C35.0356 41.6449 35.3853 41.5 35.75 41.5H55C55.3647 41.5 55.7144 41.6449 55.9723 41.9027C56.2301 42.1606 56.375 42.5103 56.375 42.875V48.65ZM56.375 52.9936L61.875 56.8436V48.155L56.375 52.005V52.9922V52.9936ZM37.125 44.25V60.75H53.625V44.25H37.125ZM39.875 47H42.625V49.75H39.875V47Z" fill="white"/>
</g>
<defs>
<clipPath id="clip0_106_10">
<rect width="33" height="33" fill="white" transform="translate(33 36)"/>
</clipPath>
</defs>
</svg>
